<svg xmlns="http://www.w3.org/2000/svg" viewBox="0 0 314.26 149.22"><defs><style>.cls-1{fill:#f78f20;}.cls-2{fill:#eb088a;}.cls-3{fill:#fff;}</style></defs><title>Asset 1</title><g id="Layer_2" data-name="Layer 2"><g id="Layer_1-2" data-name="Layer 1"><path class="cls-1" d="M314.26,0H164V30.94a46.39,46.39,0,0,1,0,91.52v26.76H314.26Z"/><path class="cls-2" d="M150.26,122.67a46.38,46.38,0,0,1,0-91.95V0H0V149.22H150.26Z"/><path class="cls-3" d="M305.85,7.44V18H281.79l24.06,11V43l-24-12.43-39.62,13v-13l26.17-7.19L257.73,18H242.2V7.44Z"/><path class="cls-3" d="M305.85,43.52v10l-35.64,3.6,35.64,5.26v10l-35.59,5.28,35.59,3.61v9.94L242.2,83.66V73.34l40.07-6-40.07-6V51.1Z"/><path class="cls-3" d="M305.85,95v10.54H242.2V95Z"/><path class="cls-3" d="M305.85,112.27v29.78H293.13l-37.26-19.12v19.82H242.2V110.43h13.2l36.86,18.92V112.27Z"/><path class="cls-3" d="M3.82,142.43V131.91H27.87l-24-11v-14l24,12.42,39.63-13v13l-26.18,7.18,10.65,5.44H67.47v10.52Z"/><path class="cls-3" d="M3.82,106.35v-10l35.63-3.59L3.82,87.49v-10L39.4,72.25,3.82,68.65v-10l63.65,7.51V76.53l-40.08,6,40.08,6V98.77Z"/><path class="cls-3" d="M3.82,54.85V44.3H67.47V54.85Z"/><path class="cls-3" d="M3.82,37.61V7.82H16.54L53.79,26.94V7.13H67.47V39.44H54.27L17.41,20.52V37.61Z"/></g></g></svg>